# xmcd
#
# Track frame offsets: 
#        150
#        21492
#        48854
#        75039
#        101191
#        119455
#        138843
#        152898
#        176454
#        190934
#
# Disc length: 2765 seconds
#
# Revision: 0
# Processed by: cddbd v1.5.1PL0 Copyright (c) Steve Scherf et al.
# Submitted via: ExactAudioCopy v0.95a5
#
DISCID=790acb0a
DTITLE=Luke Olson - Uvalde
DYEAR=1900
DGENRE=Country
TTITLE0=On The Road
TTITLE1=Just Holding You
TTITLE2=If You're Ever In Oklahoma
TTITLE3=North
TTITLE4=All These Years
TTITLE5=Greenwood Town
TTITLE6=Gulf Coast Romance
TTITLE7=Old Mines Road
TTITLE8=1985
TTITLE9=Uvalde
EXTD=
EXTT0=
EXTT1=
EXTT2=
EXTT3=
EXTT4=
EXTT5=
EXTT6=
EXTT7=
EXTT8=
EXTT9=
PLAYORDER=
